<svg width="88" height="90" viewBox="0 0 88 90" fill="none" xmlns="http://www.w3.org/2000/svg">
  <g clip-path="url(#clip0_238_515)" filter="url(#filter0_d_238_515)">
    <path d="M67.4774 -110.357C66.959 -110.357 66.5399 -110.777 66.5399 -111.294V-115.838H23.4571V-111.294C23.4571 -110.777 23.0381 -110.357 22.5196 -110.357C22.0012 -110.357 21.5821 -110.777 21.5821 -111.294V-127.584C21.5821 -130.34 23.8237 -132.584 26.5781 -132.584H63.4143C66.1706 -132.584 68.414 -130.34 68.414 -127.584V-111.294C68.4149 -110.777 67.995 -110.357 67.4774 -110.357ZM23.4571 -117.713H66.539V-127.584C66.539 -129.307 65.1375 -130.709 63.4143 -130.709H26.579C24.8578 -130.709 23.4581 -129.307 23.4581 -127.584V-117.713H23.4571ZM71.249 -132.769H18.7509C18.2325 -132.769 17.8134 -133.189 17.8134 -133.706C17.8134 -134.224 18.2325 -134.644 18.7509 -134.644H71.249C71.7674 -134.644 72.1865 -134.224 72.1865 -133.706C72.1865 -133.189 71.7674 -132.769 71.249 -132.769ZM-323.934 -26.1045C-324.452 -26.1045 -324.872 -26.5245 -324.872 -27.042V-35.726H-335.594V-27.042C-335.594 -26.5245 -336.014 -26.1045 -336.532 -26.1045C-337.049 -26.1045 -337.469 -26.5245 -337.469 -27.042V-40.7726H-339.209C-339.727 -40.7726 -340.147 -41.1926 -340.147 -41.7101C-340.147 -42.2276 -339.727 -42.6476 -339.209 -42.6476H-324.773L-323.438 -54.672V-60.4582C-323.438 -60.9757 -323.018 -61.3957 -322.5 -61.3957C-321.983 -61.3957 -321.563 -60.9757 -321.563 -60.4582V-54.6335C-321.563 -54.611 -321.563 -54.5885 -321.563 -54.566C-321.564 -54.5454 -321.566 -54.5239 -321.569 -54.5032L-322.996 -41.6585V-27.042C-322.997 -26.5235 -323.417 -26.1045 -323.934 -26.1045ZM-335.594 -37.6001H-324.872V-40.7726H-335.594V-37.6001ZM-348.751 -26.1045C-348.779 -26.1045 -348.807 -26.1054 -348.834 -26.1082H-355.047C-355.565 -26.1082 -355.985 -26.5282 -355.985 -27.0457C-355.985 -27.5632 -355.565 -27.9832 -355.047 -27.9832H-349.688V-49.3854H-364.903C-365.421 -49.3854 -365.841 -49.8054 -365.841 -50.3229C-365.841 -50.8404 -365.421 -51.2604 -364.903 -51.2604H-332.594C-332.077 -51.2604 -331.657 -50.8404 -331.657 -50.3229C-331.657 -49.8054 -332.077 -49.3854 -332.594 -49.3854H-347.813V-27.9832H-342.452C-341.934 -27.9832 -341.514 -27.5632 -341.514 -27.0457C-341.514 -26.5282 -341.934 -26.1082 -342.452 -26.1082H-348.667C-348.695 -26.1054 -348.723 -26.1045 -348.751 -26.1045ZM-360.97 -26.1045C-361.488 -26.1045 -361.908 -26.5245 -361.908 -27.042V-35.726H-372.628V-27.042C-372.628 -26.5245 -373.048 -26.1045 -373.566 -26.1045C-374.083 -26.1045 -374.503 -26.5245 -374.503 -27.042V-41.6585L-375.93 -54.5032C-375.933 -54.5248 -375.935 -54.5473 -375.936 -54.5698C-375.937 -54.5904 -375.938 -54.612 -375.938 -54.6335V-60.4582C-375.938 -60.9757 -375.518 -61.3957 -375 -61.3957C-374.483 -61.3957 -374.063 -60.9757 -374.063 -60.4582V-54.672L-372.727 -42.6476H-358.293C-357.775 -42.6476 -357.355 -42.2276 -357.355 -41.7101C-357.355 -41.1926 -357.775 -40.7726 -358.293 -40.7726H-360.033V-27.042C-360.033 -26.5235 -360.452 -26.1045 -360.97 -26.1045ZM-372.628 -37.6001H-361.908V-40.7726H-372.628V-37.6001ZM-247.52 -30.4348C-248.037 -30.4348 -248.457 -30.8548 -248.457 -31.3723V-33.9523H-270.001C-270.519 -33.9523 -270.938 -34.3714 -270.938 -34.8898V-52.8457H-291.544V-31.3723C-291.544 -30.8548 -291.964 -30.4348 -292.481 -30.4348C-293 -30.4348 -293.419 -30.8548 -293.419 -31.3723V-52.8457H-296.25C-296.768 -52.8457 -297.188 -53.2657 -297.188 -53.7832V-56.1279C-297.188 -56.6454 -296.768 -57.0654 -296.25 -57.0654H-243.75C-243.233 -57.0654 -242.813 -56.6454 -242.813 -56.1279V-53.7832C-242.813 -53.2657 -243.233 -52.8457 -243.75 -52.8457H-246.582V-31.3723C-246.582 -30.8548 -247.001 -30.4348 -247.52 -30.4348ZM-269.063 -35.8273H-248.457V-43.3976H-269.063V-35.8273ZM-269.063 -45.2726H-248.457V-52.8457H-269.063V-45.2726ZM-247.52 -54.7207H-244.688V-55.1904H-295.313V-54.7207H-247.52ZM-257.532 -38.6745H-259.981C-260.499 -38.6745 -260.918 -39.0945 -260.918 -39.612C-260.918 -40.1304 -260.499 -40.5495 -259.981 -40.5495H-257.532C-257.015 -40.5495 -256.595 -40.1304 -256.595 -39.612C-256.595 -39.0945 -257.015 -38.6745 -257.532 -38.6745ZM-257.532 -48.1236H-259.981C-260.499 -48.1236 -260.918 -48.5435 -260.918 -49.0611C-260.918 -49.5795 -260.499 -49.9986 -259.981 -49.9986H-257.532C-257.015 -49.9986 -256.595 -49.5795 -256.595 -49.0611C-256.595 -48.5435 -257.015 -48.1236 -257.532 -48.1236ZM-168.77 -30.4348C-169.287 -30.4348 -169.707 -30.8548 -169.707 -31.3723V-43.3976H-212.794V-31.3723C-212.794 -30.8548 -213.214 -30.4348 -213.731 -30.4348C-214.249 -30.4348 -214.669 -30.8548 -214.669 -31.3723V-52.8457H-217.5C-218.018 -52.8457 -218.438 -53.2657 -218.438 -53.7832V-56.1279C-218.438 -56.6454 -218.018 -57.0654 -217.5 -57.0654H-165C-164.483 -57.0654 -164.063 -56.6454 -164.063 -56.1279V-53.7832C-164.063 -53.2657 -164.483 -52.8457 -165 -52.8457H-167.832V-31.3723C-167.832 -30.8548 -168.251 -30.4348 -168.77 -30.4348ZM-190.313 -45.2726H-169.707V-52.8457H-190.313V-45.2726ZM-212.793 -45.2726H-192.188V-52.8457H-212.793V-45.2726ZM-168.77 -54.7207H-165.938V-55.1904H-216.563V-54.7207H-168.77ZM-178.782 -48.1236H-181.231C-181.748 -48.1236 -182.168 -48.5435 -182.168 -49.0611C-182.168 -49.5785 -181.748 -49.9986 -181.231 -49.9986H-178.782C-178.265 -49.9986 -177.845 -49.5785 -177.845 -49.0611C-177.845 -48.5435 -178.265 -48.1236 -178.782 -48.1236ZM-201.265 -48.2679H-203.716C-204.233 -48.2679 -204.653 -48.6879 -204.653 -49.2054C-204.653 -49.7229 -204.233 -50.1429 -203.716 -50.1429H-201.265C-200.748 -50.1429 -200.328 -49.7229 -200.328 -49.2054C-200.328 -48.6879 -200.747 -48.2679 -201.265 -48.2679ZM-101.691 -16.5626C-102.209 -16.5626 -102.628 -16.9826 -102.628 -17.5001V-20.3323H-122.375V-17.5001C-122.375 -16.9826 -122.794 -16.5626 -123.312 -16.5626C-123.831 -16.5626 -124.25 -16.9826 -124.25 -17.5001V-35.201H-127.669C-128.187 -35.201 -128.606 -35.621 -128.606 -36.1385C-128.561 -37.9414 -127.135 -39.3307 -125.357 -39.3307H-124.013L-124.005 -59.8517C-123.758 -66.0842 -118.705 -70.9376 -112.502 -70.9376C-106.295 -70.9376 -101.242 -66.0842 -100.998 -59.8882L-100.987 -39.3307H-99.6413C-97.8919 -39.3307 -96.4341 -37.9104 -96.3919 -36.1657C-96.3919 -36.1582 -96.3919 -36.1507 -96.3919 -36.1432V-36.1385C-96.3919 -35.621 -96.811 -35.201 -97.3294 -35.201H-100.751V-17.5001C-100.753 -16.9826 -101.172 -16.5626 -101.691 -16.5626ZM-122.375 -22.2073H-102.628V-27.7676H-122.375V-22.2073ZM-122.375 -29.6417H-102.628V-35.201H-122.375V-29.6417ZM-101.691 -37.076H-98.6972C-98.9447 -37.3104 -99.2785 -37.4557 -99.6432 -37.4557H-125.359C-125.723 -37.4557 -126.056 -37.3104 -126.305 -37.076H-101.691ZM-122.138 -39.3307H-102.862L-102.872 -59.8507C-103.075 -65.0004 -107.305 -69.0626 -112.501 -69.0626C-117.694 -69.0626 -121.925 -65.0004 -122.131 -59.8142L-122.138 -39.3307ZM-111.323 -24.0467H-113.677C-114.195 -24.0467 -114.614 -24.4667 -114.614 -24.9842C-114.614 -25.5017 -114.195 -25.9217 -113.677 -25.9217H-111.323C-110.804 -25.9217 -110.385 -25.5017 -110.385 -24.9842C-110.385 -24.4667 -110.804 -24.0467 -111.323 -24.0467ZM-111.323 -31.4857H-113.677C-114.195 -31.4857 -114.614 -31.9057 -114.614 -32.4232C-114.614 -32.9407 -114.195 -33.3607 -113.677 -33.3607H-111.323C-110.804 -33.3607 -110.385 -32.9407 -110.385 -32.4232C-110.385 -31.9057 -110.804 -31.4857 -111.323 -31.4857ZM-117.816 -47.9426C-118.056 -47.9426 -118.296 -48.0345 -118.478 -48.2173C-118.845 -48.5839 -118.845 -49.1764 -118.478 -49.5429L-107.846 -60.1751C-107.48 -60.5417 -106.887 -60.5417 -106.521 -60.1751C-106.154 -59.8085 -106.154 -59.216 -106.521 -58.8495L-117.153 -48.2173C-117.336 -48.0335 -117.576 -47.9426 -117.816 -47.9426ZM-113.184 -48.5989C-113.424 -48.5989 -113.664 -48.6907 -113.847 -48.8735C-114.214 -49.2401 -114.214 -49.8335 -113.847 -50.2001L-108.503 -55.542C-108.136 -55.9076 -107.543 -55.9076 -107.177 -55.542C-106.81 -55.1764 -106.81 -54.582 -107.177 -54.2154L-112.522 -48.8735C-112.705 -48.6907 -112.945 -48.5989 -113.184 -48.5989ZM-117.159 -52.5757C-117.399 -52.5757 -117.639 -52.6676 -117.822 -52.8504C-118.189 -53.216 -118.189 -53.8095 -117.822 -54.176L-112.482 -59.5179C-112.116 -59.8845 -111.523 -59.8845 -111.157 -59.5179C-110.79 -59.1523 -110.79 -58.5589 -111.157 -58.1923L-116.497 -52.8504C-116.679 -52.6676 -116.919 -52.5757 -117.159 -52.5757ZM-46.6435 -16.5626C-46.7672 -16.5626 -46.8938 -16.587 -47.0147 -16.6395C-47.49 -16.8457 -47.7075 -17.3979 -47.5031 -17.8723L-46.8263 -19.4351H-48.316C-48.8344 -19.4351 -49.2535 -19.8551 -49.2535 -20.3726V-40.4107C-49.2535 -40.9573 -48.7622 -41.3867 -48.2325 -41.3445H-40.3725V-52.3629H-48.316C-48.5907 -52.3629 -48.8504 -52.4829 -49.0294 -52.692C-49.2066 -52.901 -49.2844 -53.1767 -49.2422 -53.4476L-46.6003 -70.1473C-46.5282 -70.6029 -46.1353 -70.9376 -45.6741 -70.9376H-33.2063C-32.745 -70.9376 -32.3531 -70.6029 -32.281 -70.1473L-29.6335 -53.4476C-29.5904 -53.1767 -29.6682 -52.9001 -29.8463 -52.691C-30.0244 -52.482 -30.285 -52.362 -30.5597 -52.362H-32.6523V-47.9042C-32.6523 -47.3867 -33.0713 -46.9667 -33.5898 -46.9667C-34.1082 -46.9667 -34.5273 -47.3867 -34.5273 -47.9042V-52.362H-38.4985V-41.3435H-19.2675C-18.7369 -41.3857 -18.2466 -40.9564 -18.2466 -40.4098V-20.3717C-18.2466 -19.8542 -18.6657 -19.4342 -19.1841 -19.4342H-20.6353L-19.9576 -17.8723C-19.7504 -17.397 -19.9697 -16.8448 -20.4441 -16.6395C-20.9203 -16.4342 -21.4726 -16.6517 -21.6769 -17.127L-22.6791 -19.4351H-44.7826L-45.781 -17.1279C-45.9347 -16.7745 -46.2807 -16.5626 -46.6435 -16.5626ZM-22.0435 -21.3101H-20.1216V-29.4523H-47.3785V-21.3101H-45.42C-45.405 -21.311 -45.3919 -21.311 -45.3769 -21.3101H-22.0857C-22.0716 -21.311 -22.0566 -21.311 -22.0435 -21.3101ZM-47.3785 -31.3273H-20.1216V-39.4704H-47.3785V-31.3273ZM-33.5888 -54.2389H-31.6557L-34.006 -69.0626H-44.8726L-47.2182 -54.2379H-33.5888V-54.2389ZM-32.1647 -24.4395H-35.34C-35.8585 -24.4395 -36.2775 -24.8595 -36.2775 -25.377C-36.2775 -25.8954 -35.8585 -26.3145 -35.34 -26.3145H-32.1647C-31.6463 -26.3145 -31.2272 -25.8954 -31.2272 -25.377C-31.2272 -24.8604 -31.6463 -24.4395 -32.1647 -24.4395ZM-32.1647 -34.4651H-35.34C-35.8585 -34.4651 -36.2775 -34.8851 -36.2775 -35.4026C-36.2775 -35.921 -35.8585 -36.3401 -35.34 -36.3401H-32.1647C-31.6463 -36.3401 -31.2272 -35.921 -31.2272 -35.4026C-31.2272 -34.8851 -31.6463 -34.4651 -32.1647 -34.4651ZM69.7781 -32.4907C69.4153 -32.4907 69.0703 -32.7026 68.9174 -33.056L68.0399 -35.0782H45.0018C45 -35.0782 44.9999 -35.0782 44.998 -35.0782H21.9956L21.1218 -33.056C20.9165 -32.5826 20.3662 -32.3623 19.89 -32.5676C19.4146 -32.7729 19.1962 -33.3251 19.4015 -33.8004L19.9537 -35.0773H18.7509C18.2325 -35.0773 17.8134 -35.4973 17.8134 -36.0148V-54.0692C17.8134 -54.6073 18.2962 -55.0367 18.8099 -55.0048H44.9399C44.9596 -55.0067 44.9821 -55.0123 44.9999 -55.0067C45.0234 -55.0123 45.0403 -55.0067 45.0599 -55.0048H71.1899C71.7 -55.0367 72.1865 -54.6073 72.1865 -54.0692V-36.0148C72.1865 -35.4973 71.7674 -35.0773 71.249 -35.0773H70.0837L70.6368 -33.8014C70.8431 -33.326 70.6246 -32.7739 70.1493 -32.5685C70.0284 -32.516 69.9018 -32.4907 69.7781 -32.4907ZM68.6756 -36.9523H70.3115V-44.1054H45.9393V-36.9523H68.6343C68.6474 -36.9532 68.6624 -36.9532 68.6756 -36.9523ZM21.4003 -36.9523H44.0605V-44.1054H19.6884V-36.9523H21.359C21.3712 -36.9532 21.3862 -36.9532 21.4003 -36.9523ZM45.9393 -45.9804H70.3115V-53.1298H45.9393V-45.9804ZM19.6884 -45.9804H44.0605V-53.1298H19.6884V-45.9804ZM59.5556 -39.5904H56.6943C56.1759 -39.5904 55.7568 -40.0104 55.7568 -40.5279C55.7568 -41.0454 56.1759 -41.4654 56.6943 -41.4654H59.5556C60.074 -41.4654 60.4931 -41.0454 60.4931 -40.5279C60.4931 -40.0104 60.074 -39.5904 59.5556 -39.5904ZM33.3009 -39.5904H30.4406C29.9221 -39.5904 29.5031 -40.0104 29.5031 -40.5279C29.5031 -41.0454 29.9221 -41.4654 30.4406 -41.4654H33.3018C33.8203 -41.4654 34.2393 -41.0454 34.2393 -40.5279C34.2393 -40.0104 33.8193 -39.5904 33.3009 -39.5904ZM59.5556 -48.6185H56.6943C56.1759 -48.6185 55.7568 -49.0385 55.7568 -49.556C55.7568 -50.0735 56.1759 -50.4935 56.6943 -50.4935H59.5556C60.074 -50.4935 60.4931 -50.0735 60.4931 -49.556C60.4931 -49.0385 60.074 -48.6185 59.5556 -48.6185ZM33.3009 -48.6185H30.4406C29.9221 -48.6185 29.5031 -49.0385 29.5031 -49.556C29.5031 -50.0735 29.9221 -50.4935 30.4406 -50.4935H33.3018C33.8203 -50.4935 34.2393 -50.0735 34.2393 -49.556C34.2393 -49.0385 33.8193 -48.6185 33.3009 -48.6185ZM-373.49 46.2565C-373.614 46.2565 -373.741 46.2321 -373.862 46.1796C-374.337 45.9733 -374.556 45.4211 -374.349 44.9468L-373.797 43.6708H-375C-375.518 43.6708 -375.938 43.2518 -375.938 42.7333V24.6799C-375.938 24.1615 -375.518 23.7424 -375 23.7424H-348.751C-348.748 23.7424 -348.748 23.7424 -348.747 23.7424H-322.5C-321.983 23.7424 -321.563 24.1615 -321.563 24.6799V42.7324C-321.563 43.2508 -321.983 43.6699 -322.5 43.6699H-323.665L-323.112 44.9449C-322.906 45.4202 -323.124 45.9724 -323.6 46.1777C-324.073 46.3858 -324.626 46.1665 -324.833 45.6911L-325.71 43.669H-348.747C-348.748 43.668 -348.748 43.668 -348.751 43.669H-371.753L-372.629 45.6902C-372.782 46.0446 -373.127 46.2565 -373.49 46.2565ZM-325.073 41.7949H-323.438V25.6174H-347.81V41.7949H-325.116C-325.102 41.7949 -325.088 41.7949 -325.073 41.7949ZM-372.348 41.7949H-349.688V34.6436H-374.063V41.7949H-372.39C-372.376 41.7949 -372.362 41.7949 -372.348 41.7949ZM-374.063 32.7686H-349.688V25.6174H-374.063V32.7686ZM-360.445 39.1577H-363.307C-363.824 39.1577 -364.244 38.7386 -364.244 38.2202C-364.244 37.7018 -363.824 37.2827 -363.307 37.2827H-360.445C-359.928 37.2827 -359.508 37.7018 -359.508 38.2202C-359.508 38.7386 -359.928 39.1577 -360.445 39.1577ZM-345.829 36.0715C-346.346 36.0715 -346.766 35.6524 -346.766 35.134V32.2718C-346.766 31.7533 -346.346 31.3343 -345.829 31.3343C-345.311 31.3343 -344.891 31.7533 -344.891 32.2718V35.134C-344.891 35.6515 -345.311 36.0715 -345.829 36.0715ZM-360.445 30.1268H-363.307C-363.824 30.1268 -364.244 29.7077 -364.244 29.1893C-364.244 28.6708 -363.824 28.2518 -363.307 28.2518H-360.445C-359.928 28.2518 -359.508 28.6708 -359.508 29.1893C-359.508 29.7077 -359.928 30.1268 -360.445 30.1268ZM-246.344 50.1096C-246.862 50.1096 -247.282 49.6905 -247.282 49.1721V48.844H-269.996C-269.997 48.844 -269.997 48.844 -270 48.844H-292.681V49.1721C-292.681 49.6905 -293.101 50.1096 -293.618 50.1096C-294.136 50.1096 -294.556 49.6905 -294.556 49.1721V48.844H-296.166C-296.703 48.903 -297.187 48.4568 -297.187 47.9102V20.8277C-297.187 20.3093 -296.767 19.8902 -296.249 19.8902H-243.749C-243.232 19.8902 -242.812 20.3093 -242.812 20.8277C-242.812 20.8558 -242.813 20.884 -242.815 20.9111V29.7715C-242.813 29.7986 -242.812 29.8268 -242.812 29.8549V47.9074C-242.812 48.4258 -243.232 48.8449 -243.749 48.8449H-245.406V49.173C-245.407 49.6905 -245.827 50.1096 -246.344 50.1096ZM-269.06 46.9699H-244.688V39.8177H-269.06V46.9699ZM-295.313 46.9699H-270.938V39.8177H-295.313V46.9699ZM-269.06 37.9427H-244.688V29.9383C-244.689 29.9111 -244.691 29.883 -244.691 29.8549V21.7652H-269.06V37.9427ZM-295.313 37.9427H-270.935V21.7652H-295.313V37.9427ZM-255.443 44.3346H-258.304C-258.821 44.3346 -259.241 43.9155 -259.241 43.3971C-259.241 42.8786 -258.821 42.4596 -258.304 42.4596H-255.443C-254.925 42.4596 -254.505 42.8786 -254.505 43.3971C-254.505 43.9155 -254.925 44.3346 -255.443 44.3346ZM-281.695 44.3346H-284.557C-285.074 44.3346 -285.494 43.9155 -285.494 43.3971C-285.494 42.8786 -285.074 42.4596 -284.557 42.4596H-281.695C-281.178 42.4596 -280.758 42.8786 -280.758 43.3971C-280.758 43.9155 -281.178 44.3346 -281.695 44.3346ZM-246.527 32.2183C-247.044 32.2183 -247.464 31.7993 -247.464 31.2808V28.4224C-247.464 27.9039 -247.044 27.4849 -246.527 27.4849C-246.009 27.4849 -245.589 27.9039 -245.589 28.4224V31.2808C-245.589 31.7993 -246.009 32.2183 -246.527 32.2183ZM-293.49 32.2183C-294.008 32.2183 -294.428 31.7993 -294.428 31.2808V28.4224C-294.428 27.9039 -294.008 27.4849 -293.49 27.4849C-292.973 27.4849 -292.553 27.9039 -292.553 28.4224V31.2808C-292.553 31.7993 -292.972 32.2183 -293.49 32.2183ZM-167.594 54.9433C-168.112 54.9433 -168.532 54.5243 -168.532 54.0058V53.673H-191.246C-191.247 53.673 -191.247 53.673 -191.25 53.673H-213.931V54.0058C-213.931 54.5243 -214.351 54.9433 -214.868 54.9433C-215.386 54.9433 -215.806 54.5243 -215.806 54.0058V53.673H-217.416C-217.95 53.734 -218.437 53.2858 -218.437 52.7393V43.7093C-218.437 43.1908 -218.017 42.7718 -217.499 42.7718H-213.668V40.3671H-217.5C-218.018 40.3671 -218.438 39.948 -218.438 39.4296C-218.438 38.9111 -218.018 38.4921 -217.5 38.4921H-195.056L-194.424 36.4408H-208.081C-208.598 36.4408 -209.018 36.0218 -209.018 35.5033V15.994C-209.018 15.4755 -208.598 15.0565 -208.081 15.0565H-174.419C-173.902 15.0565 -173.482 15.4755 -173.482 15.994V35.5043C-173.482 36.0227 -173.902 36.4418 -174.419 36.4418H-188.078L-187.446 38.493H-165C-164.483 38.493 -164.063 38.9121 -164.063 39.4305C-164.063 39.949 -164.483 40.368 -165 40.368H-168.831V42.7727H-165C-164.483 42.7727 -164.063 43.1918 -164.063 43.7102V52.7365C-164.063 53.2549 -164.483 53.674 -165 53.674H-166.657V54.0068C-166.657 54.5243 -167.077 54.9433 -167.594 54.9433ZM-190.313 51.798H-165.938V44.6468H-190.313V51.798ZM-216.563 51.798H-192.188V44.6468H-216.563V51.798ZM-211.793 42.7718H-170.706V40.3671H-188.116C-188.129 40.368 -188.143 40.368 -188.159 40.3671H-194.341C-194.356 40.368 -194.37 40.368 -194.384 40.3671H-211.793V42.7718H-211.793ZM-193.094 38.4921H-189.408L-190.04 36.4408H-192.462L-193.094 38.4921ZM-189.325 34.5658H-175.357V16.9315H-207.143V34.5668H-193.177C-193.161 34.5677 -193.147 34.5677 -193.133 34.5668H-189.368C-189.354 34.5668 -189.339 34.5668 -189.325 34.5658ZM-176.693 49.1637H-179.554C-180.071 49.1637 -180.491 48.7446 -180.491 48.2262C-180.491 47.7077 -180.071 47.2887 -179.554 47.2887H-176.693C-176.175 47.2887 -175.755 47.7077 -175.755 48.2262C-175.755 48.7446 -176.175 49.1637 -176.693 49.1637ZM-202.945 49.1637H-205.807C-206.324 49.1637 -206.744 48.7446 -206.744 48.2262C-206.744 47.7077 -206.324 47.2887 -205.807 47.2887H-202.945C-202.428 47.2887 -202.008 47.7077 -202.008 48.2262C-202.008 48.7446 -202.428 49.1637 -202.945 49.1637ZM-103.749 47.4977C-104.268 47.4977 -104.687 47.0786 -104.687 46.5602V44.6449H-120.318V46.5602C-120.318 47.0786 -120.737 47.4977 -121.255 47.4977C-121.774 47.4977 -122.193 47.0786 -122.193 46.5602V44.6449H-137.812V46.5377C-137.812 47.0562 -138.231 47.4752 -138.749 47.4752C-139.268 47.4752 -139.687 47.0562 -139.687 46.5377V23.4396C-139.687 22.9212 -139.268 22.5021 -138.749 22.5021H-86.251C-85.7325 22.5021 -85.3135 22.9212 -85.3135 23.4396V46.534C-85.3135 47.0524 -85.7325 47.4715 -86.251 47.4715C-86.7694 47.4715 -87.1885 47.0524 -87.1885 46.534V44.6449H-102.812V46.5602C-102.812 47.0786 -103.231 47.4977 -103.749 47.4977ZM-102.812 42.7699H-87.1885V30.0649H-102.812V42.7699ZM-120.318 42.7699H-104.687V27.2533H-120.318V42.7699ZM-137.812 42.7699H-122.193V30.0649H-137.812V42.7699ZM-102.812 28.1899H-87.1885V24.3771H-102.812V28.1899ZM-137.812 28.1899H-122.193V24.3771H-137.812V28.1899ZM-120.318 25.3783H-104.687V24.3771H-120.318V25.3783ZM-101.651 38.2783C-102.17 38.2783 -102.589 37.8593 -102.589 37.3408V35.494C-102.589 34.9755 -102.17 34.5565 -101.651 34.5565C-101.133 34.5565 -100.714 34.9755 -100.714 35.494V37.3408C-100.714 37.8593 -101.133 38.2783 -101.651 38.2783ZM-123.353 38.2783C-123.871 38.2783 -124.29 37.8593 -124.29 37.3408V35.494C-124.29 34.9755 -123.871 34.5565 -123.353 34.5565C-122.834 34.5565 -122.415 34.9755 -122.415 35.494V37.3408C-122.415 37.8593 -122.834 38.2783 -123.353 38.2783ZM-94.0444 27.0124H-95.9513C-96.4697 27.0124 -96.8888 26.5933 -96.8888 26.0749C-96.8888 25.5565 -96.4697 25.1374 -95.9513 25.1374H-94.0444C-93.526 25.1374 -93.1069 25.5565 -93.1069 26.0749C-93.1069 26.5933 -93.5269 27.0124 -94.0444 27.0124ZM-129.048 27.0124H-130.951C-131.469 27.0124 -131.888 26.5933 -131.888 26.0749C-131.888 25.5565 -131.469 25.1374 -130.951 25.1374H-129.048C-128.529 25.1374 -128.11 25.5565 -128.11 26.0749C-128.11 26.5933 -128.53 27.0124 -129.048 27.0124ZM-21.031 62.1864H-46.4738C-46.9922 62.1864 -47.4113 61.7674 -47.4113 61.2489V26.2502C-47.4113 26.2483 -47.4113 26.2483 -47.4113 26.2465V8.75084C-47.4113 8.23241 -46.9922 7.81334 -46.4738 7.81334H-21.0273C-20.5088 7.81334 -20.0898 8.23241 -20.0898 8.75084C-20.0898 8.77896 -20.0907 8.80708 -20.0935 8.83426V26.1705C-20.0907 26.1977 -20.0898 26.2258 -20.0898 26.254C-20.0898 26.2821 -20.0907 26.3102 -20.0935 26.3374V43.6699C-20.0907 43.6971 -20.0898 43.7252 -20.0898 43.7533C-20.0898 43.7815 -20.0907 43.8096 -20.0935 43.8368V61.2489C-20.0935 61.7674 -20.5125 62.1864 -21.031 62.1864ZM-45.5353 60.3114H-21.9676V44.6908H-45.5353V60.3114ZM-45.5353 42.8121H-21.9676V27.1915H-45.5353V42.8121ZM-45.5353 25.309H-21.9676V9.68834H-45.5353V25.309ZM-43.7991 54.8271C-44.3175 54.8271 -44.7366 54.408 -44.7366 53.8896V51.1165C-44.7366 50.598 -44.3175 50.179 -43.7991 50.179C-43.2807 50.179 -42.8616 50.598 -42.8616 51.1165V53.8896C-42.8616 54.408 -43.2807 54.8271 -43.7991 54.8271ZM-43.7991 37.324C-44.3175 37.324 -44.7366 36.9049 -44.7366 36.3865V33.6171C-44.7366 33.0986 -44.3175 32.6796 -43.7991 32.6796C-43.2807 32.6796 -42.8616 33.0986 -42.8616 33.6171V36.3865C-42.8616 36.9049 -43.2807 37.324 -43.7991 37.324ZM-43.7991 19.8218C-44.3175 19.8218 -44.7366 19.4027 -44.7366 18.8843V16.1149C-44.7366 15.5965 -44.3175 15.1774 -43.7991 15.1774C-43.2807 15.1774 -42.8616 15.5965 -42.8616 16.1149V18.8843C-42.8616 19.4018 -43.2807 19.8218 -43.7991 19.8218ZM70.4446 62.1864H45.0018C45 62.1864 44.9999 62.1864 44.998 62.1864H19.5553C19.0368 62.1864 18.6178 61.7674 18.6178 61.2489V8.75084C18.6178 8.23241 19.0368 7.81334 19.5553 7.81334H70.4437C70.9622 7.81334 71.3812 8.23241 71.3812 8.75084V26.2465C71.3812 26.2483 71.3812 26.2483 71.3812 26.2502V61.2489C71.3821 61.7674 70.9621 62.1864 70.4446 62.1864ZM45.9393 60.3114H69.5071V26.2502C69.5071 26.2483 69.5071 26.2483 69.5071 26.2465V9.68834H45.9393V26.2465C45.9393 26.2483 45.9393 26.2483 45.9393 26.2502V60.3114ZM20.4928 60.3114H44.0605V44.6871H20.4928V60.3114ZM20.4928 42.8121H44.0605V26.2502C44.0605 26.2483 44.0605 26.2483 44.0605 26.2465V9.68834H20.4928V42.8121ZM42.0374 54.8271C41.519 54.8271 41.0999 54.408 41.0999 53.8896V51.1165C41.0999 50.598 41.519 50.179 42.0374 50.179C42.5559 50.179 42.9749 50.598 42.9749 51.1165V53.8896C42.9749 54.408 42.5559 54.8271 42.0374 54.8271ZM47.9625 37.324C47.444 37.324 47.025 36.9049 47.025 36.3865V33.6171C47.025 33.0986 47.444 32.6796 47.9625 32.6796C48.4809 32.6796 48.9 33.0986 48.9 33.6171V36.3865C48.9 36.9049 48.4809 37.324 47.9625 37.324ZM42.0374 37.324C41.519 37.324 41.0999 36.9049 41.0999 36.3865V33.6171C41.0999 33.0986 41.519 32.6796 42.0374 32.6796C42.5559 32.6796 42.9749 33.0986 42.9749 33.6171V36.3865C42.9749 36.9049 42.5559 37.324 42.0374 37.324ZM-323.304 140.936H-348.747C-348.749 140.936 -348.749 140.936 -348.751 140.936H-374.196C-374.713 140.936 -375.133 140.517 -375.133 139.999V87.5008C-375.133 86.9824 -374.713 86.5633 -374.196 86.5633H-323.305C-322.788 86.5633 -322.368 86.9824 -322.368 87.5008V104.996C-322.368 104.998 -322.368 104.998 -322.368 105V139.999C-322.367 140.517 -322.788 140.936 -323.304 140.936ZM-347.81 139.061H-324.242V105C-324.242 104.998 -324.242 104.998 -324.242 104.996V88.4383H-347.81V104.996C-347.81 104.998 -347.81 104.998 -347.81 105V139.061ZM-373.258 139.061H-349.688V105C-349.688 104.998 -349.688 104.998 -349.688 104.996V88.4383H-373.258V139.061ZM-336.028 132.12C-340.422 132.12 -343.997 128.546 -343.997 124.152V103.349C-343.997 98.9552 -340.422 95.3805 -336.028 95.3805C-331.633 95.3805 -328.056 98.9552 -328.056 103.349L-328.059 124.152C-328.059 128.546 -331.634 132.12 -336.028 132.12ZM-336.028 97.2546C-339.388 97.2546 -342.122 99.9883 -342.122 103.348V124.151C-342.122 127.511 -339.388 130.244 -336.028 130.244C-332.668 130.244 -329.934 127.511 -329.934 124.151L-329.931 103.348C-329.931 99.9883 -332.666 97.2546 -336.028 97.2546ZM-345.787 116.074C-346.305 116.074 -346.724 115.655 -346.724 115.136V112.367C-346.724 111.849 -346.305 111.43 -345.787 111.43C-345.269 111.43 -344.849 111.849 -344.849 112.367V115.136C-344.849 115.655 -345.269 116.074 -345.787 116.074ZM-351.712 116.074C-352.229 116.074 -352.649 115.655 -352.649 115.136V112.367C-352.649 111.849 -352.229 111.43 -351.712 111.43C-351.193 111.43 -350.774 111.849 -350.774 112.367V115.136C-350.774 115.655 -351.193 116.074 -351.712 116.074ZM-164.066 100.006C-164.066 99.4877 -164.486 99.0686 -165.004 99.0686C-165.522 99.0686 -165.941 99.4877 -165.941 100.006V110.265H-166.005C-166.094 108.206 -167.784 106.556 -169.867 106.556H-174.162C-176.243 106.556 -177.932 108.206 -178.02 110.265H-212.556C-214.101 110.265 -215.509 110.864 -216.56 111.842V107.429C-216.56 106.911 -216.979 106.492 -217.497 106.492C-218.015 106.492 -218.435 106.911 -218.435 107.429L-218.438 126.128C-218.438 126.629 -218.045 127.038 -217.551 127.065V127.494C-217.551 128.012 -217.132 128.431 -216.613 128.431C-216.096 128.431 -215.676 128.012 -215.676 127.494V127.065H-166.827V127.494C-166.827 128.012 -166.407 128.431 -165.89 128.431C-165.371 128.431 -164.952 128.012 -164.952 127.494V127.065C-164.457 127.04 -164.063 126.629 -164.063 126.128L-164.066 100.006ZM-174.162 108.431H-169.867C-168.821 108.431 -167.961 109.234 -167.872 110.254H-176.153C-176.065 109.235 -175.207 108.431 -174.162 108.431ZM-212.557 112.14H-165.941V115.207H-216.452C-216.029 113.45 -214.443 112.14 -212.557 112.14ZM-216.563 125.19V117.083H-165.939L-165.938 125.19H-216.563ZM-85.3172 119.494C-85.3172 118.976 -85.7372 118.556 -86.2547 118.556H-106.876V109.894C-106.876 109.376 -107.295 108.956 -107.813 108.956H-117.189C-117.708 108.956 -118.127 109.376 -118.127 109.894V118.556H-122.422C-121.894 116.895 -123.491 109.873 -122.994 108.542C-122.887 108.254 -122.927 107.933 -123.102 107.68C-123.278 107.426 -123.564 107.276 -123.872 107.276H-125.136V104.075H-120.134C-119.861 104.075 -119.603 103.956 -119.424 103.75C-119.246 103.543 -119.167 103.27 -119.207 103L-120.977 91.0333C-121.044 90.574 -121.439 90.2327 -121.904 90.2327H-130.243C-130.708 90.2327 -131.103 90.573 -131.17 91.0333L-132.937 103C-132.976 103.27 -132.897 103.543 -132.719 103.75C-132.542 103.956 -132.282 104.075 -132.009 104.075H-127.012V107.276H-128.275C-128.583 107.276 -128.871 107.426 -129.045 107.68C-129.221 107.933 -129.261 108.254 -129.153 108.542C-128.656 109.874 -130.251 116.895 -129.724 118.556H-138.749C-139.268 118.556 -139.687 118.976 -139.687 119.494V134.962C-139.687 135.461 -139.295 135.871 -138.802 135.897V136.328C-138.802 136.846 -138.383 137.265 -137.864 137.265C-137.346 137.265 -136.927 136.846 -136.927 136.328V135.899H-88.0782V136.328C-88.0782 136.846 -87.6591 137.265 -87.1407 137.265C-86.6222 137.265 -86.2032 136.846 -86.2032 136.328V135.898C-85.9725 135.886 -85.7531 135.79 -85.5891 135.625C-85.4128 135.448 -85.3144 135.21 -85.3144 134.962L-85.3172 119.494ZM-116.252 110.831H-108.751V118.556H-116.252V110.831ZM-130.923 102.201L-129.433 92.1096H-122.713L-121.221 102.201H-130.923ZM-127.09 109.152H-125.055C-125.239 110.64 -123.713 117.337 -124.465 118.556H-127.679C-128.43 117.338 -126.907 110.641 -127.09 109.152ZM-113.443 134.024H-137.812V120.431H-113.443V134.024ZM-111.568 134.024V120.431H-87.1922L-87.1885 134.024H-111.568Z" fill="white" />
  </g>
  <defs>
    <filter id="filter0_d_238_515" x="0" y="0" width="90" height="90" filterUnits="userSpaceOnUse" color-interpolation-filters="sRGB">
      <feFlood flood-opacity="0" result="BackgroundImageFix" />
      <feColorMatrix in="SourceAlpha" type="matrix" values="0 0 0 0 0 0 0 0 0 0 0 0 0 0 0 0 0 0 127 0" result="hardAlpha" />
      <feOffset dy="10" />
      <feGaussianBlur stdDeviation="7.5" />
      <feComposite in2="hardAlpha" operator="out" />
      <feColorMatrix type="matrix" values="0 0 0 0 0 0 0 0 0 0 0 0 0 0 0 0 0 0 0.25 0" />
      <feBlend mode="normal" in2="BackgroundImageFix" result="effect1_dropShadow_238_515" />
      <feBlend mode="normal" in="SourceGraphic" in2="effect1_dropShadow_238_515" result="shape" />
    </filter>
    <clipPath id="clip0_238_515">
      <rect width="60" height="60" fill="white" transform="translate(15 5)" />
    </clipPath>
  </defs>
</svg>