<svg width="58" height="60" viewBox="0 0 58 60" fill="none" xmlns="http://www.w3.org/2000/svg">
<path d="M53.9281 0H4.07275C2.22494 0 0.721191 1.50281 0.721191 3.35062V53.2069C0.721191 55.0547 2.22494 56.5556 4.07182 56.5556H5.69463V59.0916C5.69463 59.5931 6.1015 60 6.604 60H14.5193C15.0218 60 15.4287 59.5931 15.4287 59.0916V56.5556H42.5693V59.0916C42.5693 59.5931 42.9762 60 43.4787 60H51.394C51.8956 60 52.3024 59.5931 52.3024 59.0916V56.5556H53.9262C55.774 56.5556 57.2768 55.0538 57.2768 53.2069V3.35062C57.2787 1.50281 55.7759 0 53.9281 0ZM4.07275 1.81687H53.9281C54.7718 1.81687 55.4609 2.505 55.4609 3.35062V12.4341H2.53994V3.35062C2.53994 2.50594 3.22713 1.81687 4.07275 1.81687ZM13.6109 58.1822H7.51432V56.5566H13.6118V58.1822H13.6109ZM50.4856 58.1822H44.3881V56.5566H50.4856V58.1822ZM53.9281 54.7378H4.07275C3.22807 54.7378 2.53994 54.0516 2.53994 53.2069V14.2528H55.4609V53.2069C55.4609 54.0506 54.7718 54.7378 53.9281 54.7378Z" fill="white"/>
<path d="M43.4796 10.7832C45.4953 10.7832 47.1359 9.14258 47.1359 7.12695C47.1359 5.11133 45.4953 3.4707 43.4796 3.4707C41.4631 3.4707 39.8225 5.11133 39.8225 7.12695C39.8225 9.14258 41.4631 10.7832 43.4796 10.7832ZM43.4796 5.28852C44.4921 5.28852 45.3181 6.11352 45.3181 7.12695C45.3181 8.14039 44.4921 8.96539 43.4796 8.96539C42.4653 8.96539 41.6412 8.14039 41.6412 7.12695C41.6412 6.11352 42.4662 5.28852 43.4796 5.28852ZM29 10.7832C31.0156 10.7832 32.6553 9.14258 32.6553 7.12695C32.6553 5.11133 31.0156 3.4707 29 3.4707C26.9843 3.4707 25.3437 5.11133 25.3437 7.12695C25.3437 9.14258 26.9843 10.7832 29 10.7832ZM29 5.28852C30.0125 5.28852 30.8375 6.11352 30.8375 7.12695C30.8375 8.14039 30.0134 8.96539 29 8.96539C27.9865 8.96539 27.1615 8.14039 27.1615 7.12695C27.1615 6.11352 27.9865 5.28852 29 5.28852ZM14.5203 10.7832C16.5368 10.7832 18.1756 9.14258 18.1756 7.12695C18.1756 5.11133 16.5368 3.4707 14.5203 3.4707C12.5046 3.4707 10.864 5.11133 10.864 7.12695C10.864 9.14258 12.5046 10.7832 14.5203 10.7832ZM14.5203 5.28852C15.5337 5.28852 16.3587 6.11352 16.3587 7.12695C16.3587 8.14039 15.5337 8.96539 14.5203 8.96539C13.5068 8.96539 12.6818 8.14039 12.6818 7.12695C12.6818 6.11352 13.5068 5.28852 14.5203 5.28852ZM48.86 25.7391H9.14277C8.64027 25.7391 8.2334 26.147 8.2334 26.6485V48.7791C8.2334 49.2816 8.64027 49.6885 9.14277 49.6885H48.86C49.3634 49.6885 49.7703 49.2816 49.7703 48.7791V26.6485C49.7693 26.147 49.3634 25.7391 48.86 25.7391ZM47.9515 47.8707H10.0521V27.5579H47.9515V47.8707Z" fill="white"/>
</svg>
